<?xml version="1.0" encoding="UTF-8" standalone="no"?>
<!-- Created with Inkscape (http://www.inkscape.org/) -->
<svg
   xmlns:dc="http://purl.org/dc/elements/1.1/"
   xmlns:cc="http://web.resource.org/cc/"
   xmlns:rdf="http://www.w3.org/1999/02/22-rdf-syntax-ns#"
   xmlns:svg="http://www.w3.org/2000/svg"
   xmlns="http://www.w3.org/2000/svg"
   xmlns:sodipodi="http://sodipodi.sourceforge.net/DTD/sodipodi-0.dtd"
   xmlns:inkscape="http://www.inkscape.org/namespaces/inkscape"
   width="210mm"
   height="297mm"
   id="svg2"
   sodipodi:version="0.32"
   inkscape:version="0.45.1"
   sodipodi:docbase="/home/marcos/repositorios/marcos-mestrado/dissertacao/figs"
   sodipodi:docname="adams-typology.svg"
   inkscape:output_extension="org.inkscape.output.svg.inkscape">
  <defs
     id="defs4" />
  <sodipodi:namedview
     id="base"
     pagecolor="#ffffff"
     bordercolor="#666666"
     borderopacity="1.0"
     inkscape:pageopacity="0.0"
     inkscape:pageshadow="2"
     inkscape:zoom="5.7008886"
     inkscape:cx="106.29922"
     inkscape:cy="1035.0472"
     inkscape:document-units="px"
     inkscape:current-layer="layer1"
     inkscape:window-width="1280"
     inkscape:window-height="747"
     inkscape:window-x="0"
     inkscape:window-y="0" />
  <metadata
     id="metadata7">
    <rdf:RDF>
      <cc:Work
         rdf:about="">
        <dc:format>image/svg+xml</dc:format>
        <dc:type
           rdf:resource="http://purl.org/dc/dcmitype/StillImage" />
      </cc:Work>
    </rdf:RDF>
  </metadata>
  <g
     inkscape:label="Camada 1"
     inkscape:groupmode="layer"
     id="layer1">
    <g
       id="g6250"
       transform="translate(817.59297,-551.76504)">
      <path
         sodipodi:nodetypes="cc"
         id="path6241"
         d="M -814.9621,557.52174 L -749.35769,557.46852"
         style="fill:none;fill-rule:evenodd;stroke:#000000;stroke-width:5.26173544;stroke-linecap:butt;stroke-linejoin:miter;stroke-miterlimit:4;stroke-dasharray:none;stroke-opacity:1" />
      <path
         transform="matrix(0.954031,0,0,0.9566441,-992.98943,313.28237)"
         d="M 194.95943 254.84674 A 5.5558391 5.5558391 0 1 1  183.84776,254.84674 A 5.5558391 5.5558391 0 1 1  194.95943 254.84674 z"
         sodipodi:ry="5.5558391"
         sodipodi:rx="5.5558391"
         sodipodi:cy="254.84674"
         sodipodi:cx="189.40359"
         id="path6243"
         style="fill:#000000;stroke:none;stroke-width:2.5;stroke-miterlimit:4;stroke-dasharray:none;stroke-opacity:1"
         sodipodi:type="arc" />
      <path
         transform="matrix(0.954031,0,0,0.9566441,-932.72417,313.28237)"
         d="M 194.95943 254.84674 A 5.5558391 5.5558391 0 1 1  183.84776,254.84674 A 5.5558391 5.5558391 0 1 1  194.95943 254.84674 z"
         sodipodi:ry="5.5558391"
         sodipodi:rx="5.5558391"
         sodipodi:cy="254.84674"
         sodipodi:cx="189.40359"
         id="path6245"
         style="fill:#000000;stroke:none;stroke-width:2.5;stroke-miterlimit:4;stroke-dasharray:none;stroke-opacity:1"
         sodipodi:type="arc" />
    </g>
    <g
       id="g6266"
       transform="translate(824.11612,-591.67738)">
      <path
         sodipodi:nodetypes="cc"
         id="path6257"
         d="M -821.47157,609.4204 L -685.02838,609.39454"
         style="fill:none;fill-rule:evenodd;stroke:#000000;stroke-width:5.28909922;stroke-linecap:butt;stroke-linejoin:miter;stroke-miterlimit:4;stroke-dasharray:none;stroke-opacity:1" />
      <path
         transform="matrix(0.954031,0,0,0.9566441,-999.51258,365.19471)"
         d="M 194.95943 254.84674 A 5.5558391 5.5558391 0 1 1  183.84776,254.84674 A 5.5558391 5.5558391 0 1 1  194.95943 254.84674 z"
         sodipodi:ry="5.5558391"
         sodipodi:rx="5.5558391"
         sodipodi:cy="254.84674"
         sodipodi:cx="189.40359"
         id="path6259"
         style="fill:#000000;stroke:none;stroke-width:2.5;stroke-miterlimit:4;stroke-dasharray:none;stroke-opacity:1"
         sodipodi:type="arc" />
      <path
         transform="matrix(0.954031,0,0,0.9566441,-868.38117,365.19471)"
         d="M 194.95943 254.84674 A 5.5558391 5.5558391 0 1 1  183.84776,254.84674 A 5.5558391 5.5558391 0 1 1  194.95943 254.84674 z"
         sodipodi:ry="5.5558391"
         sodipodi:rx="5.5558391"
         sodipodi:cy="254.84674"
         sodipodi:cx="189.40359"
         id="path6261"
         style="fill:#000000;stroke:none;stroke-width:2.5;stroke-miterlimit:4;stroke-dasharray:none;stroke-opacity:1"
         sodipodi:type="arc" />
    </g>
    <g
       id="g6281"
       transform="translate(811.81097,-615.05466)">
      <path
         sodipodi:nodetypes="cc"
         id="path6272"
         d="M -809.16203,644.79331 L -601.86148,644.77623"
         style="fill:none;fill-rule:evenodd;stroke:#000000;stroke-width:5.29788065;stroke-linecap:butt;stroke-linejoin:miter;stroke-miterlimit:4;stroke-dasharray:none;stroke-opacity:1" />
      <path
         transform="matrix(0.954031,0,0,0.9566441,-987.20743,400.57201)"
         d="M 194.95943 254.84674 A 5.5558391 5.5558391 0 1 1  183.84776,254.84674 A 5.5558391 5.5558391 0 1 1  194.95943 254.84674 z"
         sodipodi:ry="5.5558391"
         sodipodi:rx="5.5558391"
         sodipodi:cy="254.84674"
         sodipodi:cx="189.40359"
         id="path6274"
         style="fill:#000000;stroke:none;stroke-width:2.5;stroke-miterlimit:4;stroke-dasharray:none;stroke-opacity:1"
         sodipodi:type="arc" />
      <path
         transform="matrix(0.954031,0,0,0.9566441,-785.20988,400.57201)"
         d="M 194.95943 254.84674 A 5.5558391 5.5558391 0 1 1  183.84776,254.84674 A 5.5558391 5.5558391 0 1 1  194.95943 254.84674 z"
         sodipodi:ry="5.5558391"
         sodipodi:rx="5.5558391"
         sodipodi:cy="254.84674"
         sodipodi:cx="189.40359"
         id="path6276"
         style="fill:#000000;stroke:none;stroke-width:2.5;stroke-miterlimit:4;stroke-dasharray:none;stroke-opacity:1"
         sodipodi:type="arc" />
    </g>
  </g>
</svg>
